<?xml version="1.0" encoding="utf-8"?>
<!-- Generator: Adobe Illustrator 28.3.0, SVG Export Plug-In . SVG Version: 6.00 Build 0)  -->
<svg version="1.1" xmlns="http://www.w3.org/2000/svg" xmlns:xlink="http://www.w3.org/1999/xlink" x="0px" y="0px"
	 viewBox="0 0 500 500" style="enable-background:new 0 0 500 500;" xml:space="preserve">
<style type="text/css">
	.st0{display:none;}
	.st1{display:inline;fill:#FFFFFF;}
	.st2{fill:#E5F1FF;}
	.st3{fill:#A9CCEA;}
	.st4{fill:#0F3157;}
	.st5{fill:#FF4D6B;}
	
		.st6{fill:none;stroke:#FF4D6B;stroke-width:1.1276;stroke-linecap:round;stroke-linejoin:round;stroke-miterlimit:10;stroke-dasharray:0,5.6381;}
	.st7{fill:#289DF2;}
	.st8{fill:#0F3775;}
	.st9{fill:#284D89;}
	.st10{fill:#2889DB;}
	.st11{fill:#FFFFFF;}
	.st12{fill:#282E5C;}
	.st13{fill:none;stroke:#FFFFFF;stroke-width:1.1276;stroke-miterlimit:10;}
	.st14{fill:#289DF2;stroke:#FFFFFF;stroke-width:1.1276;stroke-miterlimit:10;}
	.st15{fill:#289DF2;stroke:#FFFFFF;stroke-width:0.5638;stroke-miterlimit:10;}
	.st16{fill:none;stroke:#284D89;stroke-width:2.2552;stroke-linecap:round;stroke-linejoin:round;stroke-miterlimit:10;}
	.st17{fill:none;stroke:#FF5C66;stroke-width:1.0152;stroke-miterlimit:10;}
	.st18{fill:none;stroke:#F7F7F7;stroke-width:0.2538;stroke-miterlimit:10;}
	.st19{fill:#F7F7F7;}
	.st20{fill:none;stroke:#F7F7F7;stroke-width:0.5076;stroke-miterlimit:10;}
	.st21{font-family:'BebasNeueRegular';}
	.st22{font-size:9.6005px;}
	.st23{fill:#28385E;}
	.st24{font-family:'BebasNeueBook';}
	.st25{fill:none;stroke:#289DF2;stroke-width:1.1276;stroke-miterlimit:10;}
	.st26{fill:#F9FBFC;}
	.st27{fill:none;stroke:#FF4D6B;stroke-width:1.1276;stroke-miterlimit:10;}
	.st28{fill:#1AE5FF;}
	.st29{fill:#287DD1;}
	.st30{fill:none;stroke:#289DF2;stroke-width:1.1276;stroke-linecap:round;stroke-linejoin:round;stroke-miterlimit:10;}
</style>
<g id="BACKGROUND" class="st0">
	<rect class="st1" width="500" height="500"/>
</g>
<g id="OBJECTS">
	<g>
		<circle class="st2" cx="385.8" cy="146.2" r="101.4"/>
		
			<ellipse transform="matrix(0.7071 -0.7071 0.7071 0.7071 -218.13 193.458)" class="st2" cx="124.5" cy="360" rx="59.3" ry="59.3"/>
		<g>
			<path class="st3" d="M123.7,78.6c-29.9,0-54.2,24.3-54.2,54.2c0,29.9,24.3,54.2,54.2,54.2c29.9,0,54.2-24.3,54.2-54.2
				C177.9,102.8,153.6,78.6,123.7,78.6z M123.7,167.4c-19.1,0-34.7-15.5-34.7-34.7s15.5-34.7,34.7-34.7c19.1,0,34.7,15.5,34.7,34.7
				S142.8,167.4,123.7,167.4z"/>
			<path class="st4" d="M328.5,425.1c0,3.4-2.8,6.2-6.2,6.2H165c-3.4,0-6.2-2.8-6.2-6.2c0-3.4,2.8-6.2,6.2-6.2h55.8l7.7-14.2h13.3
				h3.6h13.3l7.7,14.2h55.8C325.7,418.9,328.5,421.7,328.5,425.1z"/>
			<rect x="229.4" y="391.8" class="st5" width="25.8" height="7.6"/>
			<rect x="229.4" y="379.3" class="st5" width="25.8" height="7.6"/>
			<path class="st6" d="M447.5,353.8c-4.5,1.7-9.3,2.7-14.4,2.7c-22.3,0-40.3-18-40.3-40.3s18-40.3,40.3-40.3
				c22.3,0,40.3,18,40.3,40.3c0,6-1.3,11.6-3.6,16.7"/>
			<path class="st7" d="M333.7,127h-6.4c-1.3-5.7-3.6-11.1-6.6-15.9l4.5-4.5c2-2,2-5.1,0-7.1l-10.1-10.1c-2-2-5.1-2-7.1,0l-4.5,4.5
				c-4.8-3-10.2-5.3-15.9-6.6v-6.4c0-2.8-2.2-5-5-5h-14.3c-2.8,0-5,2.2-5,5v6.4c-5.7,1.3-11.1,3.6-15.9,6.6l-4.5-4.5
				c-2-2-5.1-2-7.1,0l-10.1,10.1c-2,2-2,5.1,0,7.1l4.5,4.5c-3,4.8-5.3,10.2-6.6,15.9H217c-2.8,0-5,2.2-5,5v14.3c0,2.8,2.2,5,5,5h6.4
				c1.3,5.7,3.6,11.1,6.6,15.9l-4.5,4.5c-2,2-2,5.1,0,7.1l10.1,10.1c2,2,5.1,2,7.1,0l4.5-4.5c4.8,3,10.2,5.3,15.9,6.6v6.4
				c0,2.8,2.2,5,5,5h14.3c2.8,0,5-2.2,5-5V191c5.7-1.3,11.1-3.6,15.9-6.6l4.5,4.5c2,2,5.1,2,7.1,0l10.1-10.1c2-2,2-5.1,0-7.1
				l-4.5-4.5c3-4.8,5.3-10.2,6.6-15.9h6.4c2.8,0,5-2.2,5-5V132C338.7,129.2,336.5,127,333.7,127z M275.4,164.6
				c-14.1,0-25.5-11.4-25.5-25.5c0-14.1,11.4-25.5,25.5-25.5c14.1,0,25.5,11.4,25.5,25.5C300.9,153.2,289.4,164.6,275.4,164.6z"/>
			<path class="st8" d="M53,364.5V148.2c0-6.3,5.1-11.5,11.5-11.5h358.3c6.3,0,11.5,5.1,11.5,11.5v216.3c0,6.3-5.1,11.5-11.5,11.5
				H64.5C58.1,376,53,370.8,53,364.5z"/>
			<rect x="80.8" y="166.3" class="st9" width="39.3" height="8.7"/>
			<rect x="128.1" y="166.3" class="st9" width="39.3" height="8.7"/>
			<rect x="248.1" y="166.3" class="st9" width="39.3" height="8.7"/>
			<rect x="368" y="166.3" class="st9" width="39.3" height="8.7"/>
			<rect x="172.8" y="166.3" class="st5" width="70.3" height="8.7"/>
			<rect x="292.1" y="166.3" class="st10" width="70.3" height="8.7"/>
			<rect x="81" y="159.4" class="st10" width="6.9" height="4.2"/>
			<g>
				<rect x="81" y="182.1" class="st11" width="71.9" height="4.2"/>
				<rect x="81" y="189.5" class="st11" width="21.3" height="4.2"/>
			</g>
			<path class="st9" d="M158.5,345.6H89.1c-4.2,0-7.6-3.4-7.6-7.6V214.6c0-4.2,3.4-7.6,7.6-7.6h69.4c4.2,0,7.6,3.4,7.6,7.6V338
				C166.1,342.2,162.7,345.6,158.5,345.6z"/>
			<g>
				<rect x="92.1" y="227.3" class="st11" width="28.3" height="4.3"/>
				<rect x="92.1" y="237" class="st11" width="28.3" height="4.3"/>
				<rect x="92.1" y="246.6" class="st11" width="28.3" height="4.3"/>
			</g>
			<rect x="92.1" y="286.9" class="st11" width="17.3" height="4.3"/>
			<rect x="92.1" y="296.6" class="st11" width="17.3" height="4.3"/>
			<rect x="121.9" y="296.6" class="st11" width="17.3" height="4.3"/>
			<rect x="92.1" y="275.9" class="st11" width="10.9" height="4.3"/>
			<rect x="138.8" y="275.9" class="st11" width="5.8" height="4.3"/>
			<rect x="106.8" y="275.9" class="st5" width="29.8" height="4.3"/>
			<rect x="92.1" y="259.6" class="st10" width="4.2" height="4.3"/>
			<rect x="92.1" y="267.3" class="st5" width="4.2" height="4.3"/>
			<polygon class="st11" points="115.2,301.8 113.7,301.8 117.4,296.3 118.9,296.3 			"/>
			<rect x="92.1" y="309.3" class="st12" width="64.3" height="3.7"/>
			<rect x="92.1" y="317.6" class="st12" width="64.3" height="3.7"/>
			<path class="st7" d="M467,264.3H287.7c-3.7,0-6.8-3-6.8-6.8v-50.4c0-3.7,3-6.8,6.8-6.8H467c3.7,0,6.8,3,6.8,6.8v50.4
				C473.8,261.2,470.7,264.3,467,264.3z"/>
			<path class="st13" d="M338.3,241.6c0,0,9.8-24,37.8-18.2c28,5.8,42.2,37.3,78.2,11.6"/>
			<rect x="424.9" y="243" class="st14" width="4" height="4"/>
			<line class="st15" x1="343.2" y1="222.3" x2="393.8" y2="222.3"/>
			<line class="st15" x1="401.6" y1="246.1" x2="452.2" y2="246.1"/>
			<rect x="364.5" y="220.3" class="st14" width="4" height="4"/>
			<g>
				<path class="st9" d="M315.6,280.7h-40c-2.7,0-4.9-2.2-4.9-4.9v-59.1c0-2.7,2.2-4.9,4.9-4.9h40c2.7,0,4.9,2.2,4.9,4.9v59.1
					C320.5,278.5,318.3,280.7,315.6,280.7z"/>
				<g>
					<g>
						<rect x="278.5" y="221.6" class="st11" width="28.3" height="3.9"/>
						<rect x="278.5" y="230.3" class="st11" width="28.3" height="3.9"/>
						<rect x="278.5" y="239" class="st11" width="10.7" height="3.9"/>
					</g>
					<g>
						<rect x="278.5" y="248.1" class="st7" width="18.4" height="3.9"/>
						<rect x="278.5" y="256.8" class="st7" width="12.4" height="3.9"/>
						<rect x="278.5" y="265.5" class="st11" width="12.4" height="3.9"/>
					</g>
				</g>
			</g>
			<line class="st16" x1="442.7" y1="191.6" x2="462.7" y2="191.6"/>
			<g>
				<path class="st17" d="M397.7,304.4l-6.9,5.4l-9.9,1.8c0,0-9.3-0.6-10.2-0.6s-7.2-5.1-7.2-5.1l-11.7-4.2l-8.1,3l-9.6-2.1
					l-14.4-0.9l-13.8,5.4l-11.4,1.8l-10.2,3.3l-11.4,0.9l-12.3-9.6l-11.4-2.1l-11.7,6.6l-9.3,3l-10.6-0.3l-13.3,8.1h-7.9l-13.4,4.7"
					/>
				<g>
					<g>
						<line class="st18" x1="183.2" y1="323.7" x2="398.1" y2="323.7"/>
						<rect x="181.1" y="321" class="st19" width="2.2" height="5.4"/>
						<rect x="396.7" y="321" class="st19" width="2.2" height="5.4"/>
					</g>
					<path class="st20" d="M183.2,323.7"/>
				</g>
				<line class="st18" x1="397.9" y1="323.7" x2="397.9" y2="305.6"/>
				<path class="st19" d="M399.1,304.7c0,0.9-0.8,1.7-1.7,1.7s-1.7-0.8-1.7-1.7c0-0.9,0.8-1.7,1.7-1.7S399.1,303.8,399.1,304.7z"/>
				<text transform="matrix(1 0 0 1 183.5372 336.4153)" class="st19 st21 st22">beta test</text>
				<rect x="232.8" y="331.5" class="st23" width="133.6" height="2.4"/>
				<rect x="232.8" y="331.5" class="st5" width="82" height="2.4"/>
				<rect x="232.8" y="336.1" class="st23" width="65.7" height="2.4"/>
				<g>
					<polygon class="st5" points="191.2,343.3 199.3,343.3 200.3,341 184,341 184,344.8 189.7,344.8 					"/>
					<rect x="207.1" y="341" class="st19" width="0.9" height="0.9"/>
					<rect x="212.7" y="341" class="st19" width="0.9" height="0.9"/>
					<rect x="218.3" y="341" class="st19" width="0.9" height="0.9"/>
				</g>
				<text transform="matrix(1 0 0 1 387.3463 298.7474)" class="st19 st24 st22">500</text>
				<g>
					<polygon class="st23" points="376,338.7 374,338.7 370.8,331.5 372.8,331.5 					"/>
					<polygon class="st23" points="381.2,338.7 379.2,338.7 376,331.5 378,331.5 					"/>
					<polygon class="st23" points="386.4,338.7 384.4,338.7 381.2,331.5 383.2,331.5 					"/>
					<polygon class="st23" points="391.6,338.7 389.6,338.7 386.4,331.5 388.4,331.5 					"/>
					<polygon class="st23" points="396.7,338.7 394.7,338.7 391.5,331.5 393.5,331.5 					"/>
				</g>
			</g>
			<g>
				<g>
					<rect x="355.5" y="90.8" class="st3" width="32.5" height="5.8"/>
					<rect x="355.5" y="101.3" class="st3" width="49" height="5.8"/>
					<rect x="355.5" y="111.7" class="st3" width="60.5" height="5.8"/>
					<rect x="355.5" y="122.1" class="st3" width="23.1" height="5.8"/>
				</g>
			</g>
			<g>
				<g>
					<rect x="14.3" y="161" class="st10" width="32.5" height="5.8"/>
					<rect x="14.3" y="171.5" class="st3" width="49" height="5.8"/>
					<rect x="14.3" y="181.9" class="st3" width="60.5" height="5.8"/>
					<rect x="14.3" y="192.3" class="st3" width="23.1" height="5.8"/>
				</g>
			</g>
			<rect x="95.5" y="365.6" class="st25" width="138.6" height="18"/>
			<rect x="162.3" y="223.8" class="st25" width="6.7" height="40.9"/>
			<g>
				<ellipse transform="matrix(0.9872 -0.1592 0.1592 0.9872 -44.8138 72.9802)" class="st5" cx="433" cy="316.2" rx="23" ry="23"/>
				<g>
					<g>
						<path class="st26" d="M431.4,314l-9.1,3.3l9.1,3.3v3.4l-13-5v-3.6l13-5V314z"/>
					</g>
					<g>
						<path class="st26" d="M434.3,310.6l13,5v3.6l-13,5v-3.4l9.1-3.3l-9.1-3.3V310.6z"/>
					</g>
				</g>
			</g>
			<path class="st27" d="M471.3,334.9c0,1.7-1.3,3-3,3c-1.7,0-3-1.3-3-3s1.3-3,3-3C470,331.9,471.3,333.3,471.3,334.9z"/>
			<rect x="88.1" y="117.7" class="st25" width="108.6" height="11.3"/>
			<rect x="92.8" y="121.3" class="st7" width="67.3" height="3.3"/>
			<g>
				<rect x="180.5" y="206.1" class="st9" width="79.5" height="4"/>
				<rect x="180.5" y="206.1" class="st10" width="36" height="4"/>
			</g>
			<g>
				<rect x="180.5" y="216.4" class="st9" width="79.5" height="4"/>
				<rect x="180.5" y="216.4" class="st5" width="55.4" height="4"/>
			</g>
			<g>
				<rect x="180.5" y="226.7" class="st9" width="79.5" height="4"/>
				<rect x="180.5" y="226.7" class="st28" width="16.2" height="4"/>
			</g>
			<g>
				<rect x="180.9" y="199.1" class="st9" width="1.6" height="1.6"/>
				<rect x="186.2" y="199.1" class="st9" width="1.6" height="1.6"/>
				<rect x="191.5" y="199.1" class="st9" width="1.6" height="1.6"/>
			</g>
			<g>
				<rect x="328.9" y="253.5" class="st11" width="2.6" height="2.6"/>
				<rect x="337.7" y="253.5" class="st11" width="2.6" height="2.6"/>
				<rect x="346.6" y="253.5" class="st11" width="2.6" height="2.6"/>
			</g>
			<g>
				<rect x="366.3" y="150.6" class="st11" width="4.9" height="4.9"/>
				<rect x="382.9" y="150.6" class="st11" width="4.9" height="4.9"/>
				<rect x="399.6" y="150.6" class="st11" width="4.9" height="4.9"/>
			</g>
			<g>
				<rect x="297.4" y="351.4" class="st11" width="4.9" height="4.9"/>
				<rect x="314.1" y="351.4" class="st11" width="4.9" height="4.9"/>
				<rect x="330.7" y="351.4" class="st11" width="4.9" height="4.9"/>
			</g>
			<g>
				<rect x="93.5" y="216.8" class="st11" width="2.6" height="2.6"/>
				<rect x="102.4" y="216.8" class="st11" width="2.6" height="2.6"/>
				<rect x="111.3" y="216.8" class="st11" width="2.6" height="2.6"/>
			</g>
			<g>
				<rect x="413.8" y="213.6" class="st11" width="43.1" height="4.2"/>
				<rect x="413.8" y="221.1" class="st29" width="12.8" height="4.2"/>
			</g>
			<polygon class="st28" points="66.1,222.3 56.8,222.3 56.8,213 48.1,213 48.1,222.3 38.8,222.3 38.8,231 48.1,231 48.1,240.3 
				56.8,240.3 56.8,231 66.1,231 			"/>
			<polygon class="st10" points="41.2,248.3 35.5,248.3 35.5,242.6 30.2,242.6 30.2,248.3 24.5,248.3 24.5,253.6 30.2,253.6 
				30.2,259.3 35.5,259.3 35.5,253.6 41.2,253.6 			"/>
			<g>
				<path class="st9" d="M196.9,243.3c-8.1,0-14.6,6.5-14.6,14.6c0,8.1,6.5,14.6,14.6,14.6c8.1,0,14.6-6.5,14.6-14.6
					C211.5,249.8,204.9,243.3,196.9,243.3z M196.9,265.5c-4.2,0-7.6-3.4-7.6-7.6c0-4.2,3.4-7.6,7.6-7.6c4.2,0,7.6,3.4,7.6,7.6
					C204.5,262.1,201.1,265.5,196.9,265.5z"/>
				<path class="st7" d="M186.9,256.5c1.4,0,2.5-0.8,3.2-2c1.3-2.5,3.8-4.2,6.8-4.2c3,0,5.5,1.7,6.8,4.2c0.6,1.2,1.8,2,3.2,2l0,0
					c2.6,0,4.3-2.7,3.2-5c-2.4-4.8-7.4-8.2-13.1-8.2c-5.8,0-10.7,3.3-13.1,8.2C182.6,253.8,184.4,256.5,186.9,256.5L186.9,256.5z"/>
			</g>
			<g>
				<path class="st9" d="M221.4,257.9c0,8.1,6.5,14.6,14.6,14.6c8.1,0,14.6-6.5,14.6-14.6c0-8.1-6.5-14.6-14.6-14.6
					C227.9,243.3,221.4,249.8,221.4,257.9z M243.6,257.9c0,4.2-3.4,7.6-7.6,7.6c-4.2,0-7.6-3.4-7.6-7.6c0-4.2,3.4-7.6,7.6-7.6
					C240.2,250.3,243.6,253.7,243.6,257.9z"/>
				<path class="st5" d="M234.5,267.8c0-1.4-0.8-2.5-2-3.2c-2.5-1.3-4.2-3.8-4.2-6.8c0-3,1.7-5.5,4.2-6.8c1.2-0.6,2-1.8,2-3.2l0,0
					c0-2.6-2.7-4.3-5-3.2c-4.8,2.4-8.2,7.4-8.2,13.1c0,5.8,3.3,10.7,8.2,13.1C231.9,272.1,234.5,270.4,234.5,267.8L234.5,267.8z"/>
			</g>
			<rect x="128.6" y="200.3" class="st25" width="26.7" height="64"/>
			<g>
				<rect x="132.3" y="212.6" class="st28" width="7.8" height="2.3"/>
				<rect x="132.3" y="217.8" class="st28" width="7.8" height="2.3"/>
				<rect x="132.3" y="222.9" class="st28" width="7.8" height="2.3"/>
				<rect x="132.3" y="249.5" class="st28" width="7.8" height="2.3"/>
			</g>
			<g>
				<rect x="132.3" y="230.4" class="st28" width="11.3" height="2.3"/>
				<rect x="132.3" y="235.5" class="st11" width="11.3" height="2.3"/>
				<rect x="132.3" y="240.7" class="st11" width="11.3" height="2.3"/>
			</g>
			<rect x="33" y="280.3" class="st7" width="33.8" height="33.8"/>
			<rect x="15.3" y="288.3" class="st25" width="33.8" height="33.8"/>
			<rect x="434.7" y="378" class="st25" width="14.2" height="14.2"/>
			<g>
				<polyline class="st13" points="264.1,355.6 276.1,355.6 282.7,362.2 352,362.2 362.7,351.6 400,351.6 				"/>
				<circle class="st13" cx="260.6" cy="355.7" r="3.5"/>
				<circle class="st13" cx="403.6" cy="351.4" r="3.5"/>
			</g>
			<path class="st7" d="M450.7,167.4c0,2.5-2,4.4-4.4,4.4s-4.4-2-4.4-4.4c0-2.5,2-4.4,4.4-4.4S450.7,165,450.7,167.4z"/>
			<path class="st5" d="M40.1,340.7c0,2.5-2,4.4-4.4,4.4s-4.4-2-4.4-4.4c0-2.5,2-4.4,4.4-4.4S40.1,338.2,40.1,340.7z"/>
			<path class="st5" d="M60.6,357.1c0,4.3-3.5,7.8-7.8,7.8c-4.3,0-7.8-3.5-7.8-7.8s3.5-7.8,7.8-7.8
				C57.1,349.4,60.6,352.8,60.6,357.1z"/>
			<g>
				<rect x="294.3" y="383.3" class="st25" width="31.1" height="7.1"/>
				<rect x="294.3" y="396.7" class="st25" width="68.2" height="7.1"/>
			</g>
			<g>
				<line class="st30" x1="103.8" y1="390.2" x2="96.2" y2="397.7"/>
				<line class="st30" x1="111" y1="390.2" x2="103.5" y2="397.7"/>
				<line class="st30" x1="118.2" y1="390.2" x2="110.7" y2="397.7"/>
				<line class="st30" x1="125.5" y1="390.2" x2="118" y2="397.7"/>
				<line class="st30" x1="132.7" y1="390.2" x2="125.2" y2="397.7"/>
			</g>
		</g>
	</g>
</g>
</svg>
