<?xml version="1.0" encoding="iso-8859-1"?>
<!-- Uploaded to: SVG Repo, www.svgrepo.com, Generator: SVG Repo Mixer Tools -->
<svg fill="#000000" height="800px" width="800px" version="1.1" id="Layer_1" xmlns="http://www.w3.org/2000/svg" xmlns:xlink="http://www.w3.org/1999/xlink" 
	 viewBox="0 0 512 512" xml:space="preserve">
<g>
	<g>
		<path d="M190.208,367.403l-38.72-58.091l38.72-58.091c3.264-4.907,1.92-11.52-2.965-14.784
			c-4.864-3.264-11.499-1.963-14.784,2.965l-42.667,64c-2.389,3.584-2.389,8.256,0,11.84l42.667,64
			c2.069,3.093,5.44,4.757,8.875,4.757c2.048,0,4.096-0.576,5.909-1.813C192.149,378.923,193.472,372.309,190.208,367.403z"/>
	</g>
</g>
<g>
	<g>
		<path d="M291.755,214.016c-5.461-2.069-11.669,0.704-13.739,6.229l-64,170.667c-2.091,5.525,0.704,11.669,6.229,13.739
			c1.237,0.469,2.496,0.683,3.755,0.683c4.309,0,8.384-2.645,9.984-6.912l64-170.667
			C300.075,222.229,297.28,216.085,291.755,214.016z"/>
	</g>
</g>
<g>
	<g>
		<path d="M382.208,303.424l-42.667-64c-3.285-4.928-9.92-6.229-14.784-2.965c-4.907,3.264-6.229,9.877-2.965,14.784l38.72,58.091
			l-38.72,58.091c-3.264,4.907-1.92,11.52,2.965,14.784c1.813,1.216,3.861,1.792,5.909,1.792c3.435,0,6.805-1.664,8.875-4.736
			l42.667-64C384.597,311.68,384.597,307.008,382.208,303.424z"/>
	</g>
</g>
<g>
	<g>
		<path d="M437.333,0H202.667c-1.429,0-2.837,0.299-4.139,0.832c-0.405,0.171-0.704,0.491-1.067,0.725
			c-0.811,0.469-1.664,0.896-2.347,1.557l-128,128c-0.491,0.491-0.768,1.152-1.152,1.728c-0.384,0.576-0.875,1.067-1.131,1.707
			c-0.533,1.301-0.832,2.688-0.832,4.117v362.667C64,507.221,68.779,512,74.667,512h362.667c5.888,0,10.667-4.779,10.667-10.667
			V10.667C448,4.779,443.221,0,437.333,0z M192,36.416V128h-91.584L192,36.416z M426.667,490.667H85.333V149.333h117.333
			c5.888,0,10.667-4.779,10.667-10.667V21.333h213.333V490.667z"/>
	</g>
</g>
</svg>